<svg width="124" height="124" viewBox="0 0 124 124" fill="none" xmlns="http://www.w3.org/2000/svg">
<path d="M62.0116 10.3333C51.794 10.333 41.8058 13.3622 33.3097 19.0379C24.8135 24.7137 18.191 32.7811 14.2794 42.2202C10.3678 51.6594 9.34267 62.0464 11.3337 72.0681C13.3248 82.0897 18.2426 91.2961 25.4653 98.5231C30.2331 103.451 35.934 107.38 42.2358 110.082C48.5376 112.784 55.3142 114.205 62.1706 114.261C69.027 114.318 75.8261 113.009 82.1716 110.411C88.5171 107.814 94.2821 103.979 99.1304 99.1304C103.979 94.2821 107.814 88.5171 110.411 82.1716C113.009 75.8261 114.318 69.027 114.261 62.1706C114.205 55.3142 112.784 48.5376 110.082 42.2358C107.38 35.934 103.451 30.2331 98.5231 25.4653C93.7392 20.6554 88.0492 16.8415 81.7822 14.2442C75.5152 11.6468 68.7955 10.3176 62.0116 10.3333ZM62.0116 0C74.2763 0 86.2656 3.63692 96.4634 10.4508C106.661 17.2648 114.609 26.9496 119.303 38.2808C123.996 49.6119 125.224 62.0804 122.832 74.1095C120.439 86.1385 114.533 97.1879 105.86 105.86C97.1879 114.533 86.1385 120.439 74.1095 122.832C62.0804 125.224 49.6119 123.996 38.2808 119.303C26.9496 114.609 17.2648 106.661 10.4508 96.4634C3.63692 86.2656 0 74.2763 0 62.0116C0 45.5651 6.53334 29.7922 18.1628 18.1628C29.7922 6.53334 45.5651 0 62.0116 0Z" fill="white"/>
<path d="M46.6446 101.873C39.3155 98.8664 32.9307 93.9429 28.16 87.6188C24.08 82.0469 21.479 75.5318 20.5998 68.6821C19.7816 62.3267 20.3491 55.8694 22.2631 49.7541C24.0157 43.9518 27.1282 38.6517 31.3417 34.2946C31.6315 34.0049 31.9038 33.7151 32.1878 33.4253C36.0584 29.4492 40.6802 26.2816 45.7849 24.1063C50.8897 21.931 56.3756 20.7913 61.9244 20.7535C73.1131 20.9052 83.8171 25.3444 91.8291 33.1558L91.8986 33.2225L91.9682 33.292C96.0318 37.3205 99.2053 42.1565 101.284 47.4877C103.362 52.819 104.299 58.5269 104.034 64.2428C103.52 75.0056 99.049 85.1992 91.4784 92.8666C87.2997 97.0951 82.1946 100.293 76.5667 102.209L72.8952 103.449L70.1482 100.719C67.6417 98.2303 64.9641 95.5789 61.9766 92.6319C60.0959 94.4082 58.1255 96.257 56.1173 98.1376L54.1237 100.004L50.4001 103.481L46.6446 101.873ZM29.9051 88.2162C34.3783 93.9114 40.2999 98.2998 47.0503 100.922L50.1857 102.267L52.6806 99.9487L53.4167 99.2619L55.4074 97.3987C57.0823 95.8281 59.386 93.6664 61.8867 91.3134C59.3831 93.6751 57.0823 95.8368 55.4074 97.3987L53.4167 99.2619L52.6806 99.9487L50.1857 102.267L47.0503 100.922C40.2999 98.2998 34.3783 93.9114 29.9051 88.2162ZM70.8842 99.9893C67.8532 96.9785 64.8366 93.9938 61.9998 91.1975C64.8279 93.9938 67.8474 96.964 70.8755 99.9893H70.8842ZM83.4053 84.7211C81.3324 86.805 78.942 88.5469 76.3233 89.8819C80.7352 87.6051 84.4836 84.2261 87.2043 80.0731C86.0946 81.7441 84.8221 83.301 83.4053 84.7211ZM62.2519 41.1884C67.6623 41.1602 72.8667 43.2617 76.7405 47.0389C80.5168 50.9255 82.83 56.0003 83.2865 61.4001C83.5369 64.5517 83.0789 67.7195 81.9463 70.6712C80.8136 73.6229 79.0349 76.2839 76.7405 78.4591C75.3757 79.8239 73.4661 81.6842 71.0523 84.0024C72.6518 85.5817 74.3064 87.216 75.9929 88.888C78.4554 87.6104 80.7039 85.9573 82.6577 83.9879C88.2089 78.4761 91.3696 71.0021 91.4574 63.1798C91.5453 55.3575 88.5532 47.8145 83.1272 42.1794C70.1801 29.9596 52.4517 30.2262 40.3739 42.9705L40.258 43.0893C37.3613 46.3056 35.21 50.1215 33.9578 54.2649C32.7055 58.4083 32.3832 62.777 33.0137 67.0594C33.5727 71.5951 35.2279 75.9265 37.8361 79.6792C40.4442 83.432 43.927 86.4932 47.9834 88.5982C49.2845 87.3783 51.0724 85.7005 53.0428 83.8402L52.9907 83.788C49.8351 80.6874 47.3517 78.2417 46.123 77.016C44.2833 75.0882 42.8476 72.8121 41.9001 70.3215C40.9526 67.8308 40.5125 65.1759 40.6058 62.5128C40.6498 56.954 42.8599 51.6314 46.7663 47.6764C48.7865 45.6259 51.1933 43.9964 53.8474 42.8822C56.5015 41.768 59.3502 41.1913 62.2287 41.1855L62.2519 41.1884ZM76.019 77.7288C74.3731 79.3747 72.081 81.5944 69.5773 83.9908C72.081 81.5944 74.3731 79.3718 76.019 77.7288ZM55.6189 56.5319C54.0234 58.2041 53.1304 60.4247 53.124 62.7359C53.0068 64.7182 53.6728 66.6673 54.9785 68.1634C56.2217 69.4036 58.6674 71.8088 61.765 74.8543L62.1302 75.2136C64.6048 72.8432 66.5405 70.9568 67.8938 69.6036C68.8187 68.7172 69.5547 67.6529 70.0575 66.4746C70.5603 65.2964 70.8195 64.0286 70.8195 62.7475C70.8195 61.4665 70.5603 60.1987 70.0575 59.0204C69.5547 57.8422 68.8187 56.7778 67.8938 55.8915C66.3632 54.4627 64.3396 53.6809 62.2461 53.7095C61.0101 53.7182 59.7881 53.9721 58.651 54.4566C57.5139 54.9411 56.4814 55.6465 55.6189 56.5319ZM76.0161 47.7691C80.0161 51.8655 82.2775 57.3498 82.3274 63.075C82.2779 57.3488 80.0165 51.8635 76.0161 47.7662C72.1354 44.0969 66.9642 42.1062 61.6248 42.2261C56.2853 42.346 51.2087 44.5668 47.4966 48.4066C49.4206 46.4518 51.7135 44.8984 54.2424 43.8364C56.7713 42.7744 59.4859 42.225 62.2287 42.22C67.3778 42.1765 72.3322 44.1713 76.0161 47.7691ZM54.8916 55.8161C54.9921 55.7157 55.0886 55.6191 55.1814 55.5264C55.0867 55.6114 54.9901 55.708 54.8916 55.8161ZM41.6345 62.8808C41.6345 62.7649 41.6345 62.649 41.6345 62.5331C41.6373 62.649 41.6345 62.7707 41.6345 62.8808ZM41.6345 62.1854C41.7782 57.0172 43.8738 52.0952 47.4995 48.4095C43.8777 52.099 41.7874 57.023 41.6489 62.1912L41.6345 62.1854ZM55.2538 55.4539C56.2939 54.4911 57.5168 53.7472 58.8499 53.2661C57.5178 53.7474 56.2959 54.4914 55.2567 55.4539H55.2538ZM35.8824 31.4462C42.6739 25.6273 51.2122 22.2398 60.1457 21.8199C69.0792 21.4 77.8975 23.9717 85.2048 29.128C78.3373 24.3921 70.2027 21.8344 61.8607 21.788C52.3305 21.8279 43.1241 25.2507 35.8824 31.4462Z" fill="white"/>
</svg>
