<svg width="36" height="37" viewBox="0 0 36 37" fill="none" xmlns="http://www.w3.org/2000/svg">
<path d="M18.0034 3.5C15.037 3.4999 12.1372 4.37935 9.67055 6.02714C7.20393 7.67493 5.28126 10.0171 4.14563 12.7575C3.00999 15.4979 2.71239 18.5135 3.29043 21.423C3.86848 24.3325 5.29622 27.0053 7.39316 29.1035C8.77735 30.5341 10.4325 31.6749 12.262 32.4593C14.0916 33.2438 16.059 33.6563 18.0495 33.6727C20.0401 33.6891 22.014 33.3091 23.8563 32.5549C25.6985 31.8007 27.3722 30.6874 28.7798 29.2798C30.1874 27.8722 31.3007 26.1985 32.0549 24.3563C32.8091 22.514 33.1891 20.5401 33.1727 18.5495C33.1563 16.559 32.7438 14.5916 31.9593 12.762C31.1749 10.9325 30.0341 9.27735 28.6035 7.89316C27.2146 6.49672 25.5627 5.38946 23.7432 4.6354C21.9238 3.88134 19.9729 3.49543 18.0034 3.5ZM18.0034 0.5C21.5641 0.5 25.0449 1.55588 28.0055 3.53411C30.9661 5.51235 33.2737 8.32409 34.6363 11.6138C35.9989 14.9035 36.3555 18.5233 35.6608 22.0156C34.9661 25.508 33.2515 28.7158 30.7337 31.2337C28.2158 33.7515 25.008 35.4661 21.5156 36.1608C18.0233 36.8555 14.4035 36.4989 11.1138 35.1363C7.82409 33.7737 5.01235 31.4661 3.03411 28.5055C1.05588 25.5449 0 22.0641 0 18.5034C0 13.7286 1.89678 9.14935 5.27306 5.77306C8.64935 2.39678 13.2286 0.5 18.0034 0.5Z" fill="#131721"/>
<path d="M13.542 30.076C11.4142 29.2032 9.56054 27.7738 8.1755 25.9377C6.991 24.3201 6.23586 22.4286 5.9806 20.44C5.74308 18.5948 5.90782 16.7202 6.4635 14.9447C6.97232 13.2602 7.87594 11.7215 9.09922 10.4565C9.18335 10.3724 9.26243 10.2883 9.34488 10.2041C10.4686 9.04978 11.8104 8.13015 13.2924 7.49861C14.7744 6.86707 16.3671 6.5362 17.9781 6.52522C21.2264 6.56925 24.334 7.85806 26.6601 10.1259L26.6803 10.1452L26.7005 10.1654C27.8802 11.335 28.8016 12.739 29.405 14.2868C30.0084 15.8345 30.2804 17.4917 30.2035 19.1511C30.0544 22.2758 28.7562 25.2353 26.5583 27.4613C25.3451 28.6889 23.863 29.6175 22.2291 30.1736L21.1632 30.5336L20.3656 29.7411C19.6379 29.0185 18.8606 28.2487 17.9932 27.3931C17.4472 27.9088 16.8752 28.4456 16.2922 28.9916L15.7134 29.5333L14.6323 30.5429L13.542 30.076ZM8.68213 26.1112C9.98083 27.7646 11.7 29.0387 13.6598 29.8L14.5701 30.1904L15.2944 29.5174L15.5081 29.318L16.086 28.777C16.5723 28.3211 17.2411 27.6935 17.9671 27.0104C17.2403 27.696 16.5723 28.3236 16.086 28.777L15.5081 29.318L15.2944 29.5174L14.5701 30.1904L13.6598 29.8C11.7 29.0387 9.98083 27.7646 8.68213 26.1112ZM20.5793 29.5291C19.6993 28.6551 18.8236 27.7885 18 26.9767C18.821 27.7885 19.6977 28.6508 20.5768 29.5291H20.5793ZM24.2145 25.0964C23.6127 25.7015 22.9187 26.2072 22.1584 26.5948C23.4393 25.9337 24.5275 24.9527 25.3174 23.747C24.9952 24.2322 24.6258 24.6842 24.2145 25.0964ZM18.0731 12.4579C19.6439 12.4497 21.1549 13.0598 22.2795 14.1565C23.3759 15.2848 24.0474 16.7582 24.18 18.3258C24.2527 19.2408 24.1197 20.1605 23.7909 21.0175C23.462 21.8744 22.9457 22.6469 22.2795 23.2784C21.8833 23.6747 21.3289 24.2148 20.6281 24.8878C21.0925 25.3463 21.5729 25.8208 22.0625 26.3062C22.7774 25.9353 23.4302 25.4553 23.9974 24.8836C25.6091 23.2834 26.5267 21.1135 26.5522 18.8425C26.5777 16.5715 25.709 14.3816 24.1337 12.7456C20.3749 9.19796 15.2279 9.27536 11.7215 12.9753L11.6878 13.0098C10.8468 13.9436 10.2223 15.0514 9.85873 16.2543C9.49518 17.4573 9.40159 18.7256 9.58464 19.9688C9.74695 21.2857 10.2275 22.5432 10.9847 23.6327C11.7419 24.7222 12.753 25.6109 13.9307 26.2221C14.3084 25.8679 14.8275 25.3808 15.3996 24.8407L15.3844 24.8256C14.4683 23.9254 13.7473 23.2153 13.3906 22.8595C12.8565 22.2998 12.4396 21.639 12.1646 20.9159C11.8895 20.1928 11.7617 19.422 11.7888 18.6489C11.8016 17.035 12.4432 15.4898 13.5774 14.3415C14.1638 13.7462 14.8626 13.2731 15.6331 12.9497C16.4037 12.6262 17.2307 12.4588 18.0664 12.4571L18.0731 12.4579ZM22.0701 23.0664C21.5922 23.5443 20.9268 24.1887 20.1999 24.8844C20.9268 24.1887 21.5922 23.5434 22.0701 23.0664ZM16.1475 16.9125C15.6842 17.398 15.425 18.0427 15.4231 18.7137C15.3891 19.2892 15.5825 19.855 15.9615 20.2894C16.3224 20.6494 17.0325 21.3477 17.9318 22.2319L18.0378 22.3362C18.7563 21.648 19.3182 21.1004 19.7111 20.7075C19.9796 20.4502 20.1933 20.1412 20.3393 19.7991C20.4853 19.457 20.5605 19.0889 20.5605 18.717C20.5605 18.3451 20.4853 17.977 20.3393 17.635C20.1933 17.2929 19.9796 16.9839 19.7111 16.7266C19.2668 16.3117 18.6793 16.0848 18.0715 16.0931C17.7126 16.0956 17.3579 16.1693 17.0277 16.31C16.6976 16.4506 16.3978 16.6554 16.1475 16.9125ZM22.0692 14.3685C23.2305 15.5577 23.887 17.1499 23.9015 18.8121C23.8872 17.1497 23.2306 15.5572 22.0692 14.3676C20.9426 13.3023 19.4412 12.7244 17.8911 12.7592C16.3409 12.794 14.8671 13.4388 13.7894 14.5535C14.3479 13.986 15.0136 13.535 15.7478 13.2267C16.482 12.9184 17.2701 12.7589 18.0664 12.7574C19.5613 12.7448 20.9997 13.3239 22.0692 14.3685ZM15.9363 16.7047C15.9655 16.6755 15.9935 16.6475 16.0204 16.6206C15.9929 16.6452 15.9649 16.6733 15.9363 16.7047ZM12.0874 18.7557C12.0874 18.7221 12.0874 18.6884 12.0874 18.6548C12.0883 18.6884 12.0874 18.7238 12.0874 18.7557ZM12.0874 18.5538C12.1292 17.0534 12.7376 15.6244 13.7902 14.5544C12.7387 15.6255 12.1318 17.0551 12.0917 18.5555L12.0874 18.5538ZM16.0415 16.5995C16.3434 16.32 16.6984 16.104 17.0855 15.9644C16.6987 16.1041 16.344 16.3201 16.0423 16.5995H16.0415ZM10.4175 9.62953C12.3892 7.94018 14.8681 6.95671 17.4617 6.83481C20.0553 6.71291 22.6154 7.45954 24.7369 8.95651C22.7431 7.58159 20.3814 6.83902 17.9596 6.82555C15.1927 6.83715 12.5199 7.83085 10.4175 9.62953Z" fill="#131721"/>
</svg>
