<svg width="20" height="20" viewBox="0 0 20 20" fill="none" xmlns="http://www.w3.org/2000/svg">
<g clip-path="url(#clip0_54_308)">
<path d="M14.1667 11.6667L14.1667 1.66666" stroke="#7B61FF" stroke-width="1.66667" stroke-linecap="round" stroke-linejoin="round"/>
<path d="M7.5 15.1L8.33333 11.6667L3.475 11.6667C3.21625 11.6667 2.96107 11.6064 2.72964 11.4907C2.49821 11.375 2.29691 11.207 2.14166 11C1.98642 10.793 1.8815 10.5527 1.83521 10.2982C1.78893 10.0436 1.80255 9.78173 1.875 9.53334L3.81666 2.86668C3.91764 2.52048 4.12817 2.21638 4.41666 2.00001C4.70516 1.78364 5.05605 1.66668 5.41666 1.66668L16.6667 1.66668C17.1087 1.66668 17.5326 1.84227 17.8452 2.15483C18.1577 2.46739 18.3333 2.89132 18.3333 3.33334L18.3333 10C18.3333 10.442 18.1577 10.866 17.8452 11.1785C17.5326 11.4911 17.1087 11.6667 16.6667 11.6667L14.3667 11.6667C14.0566 11.6668 13.7527 11.7535 13.4892 11.9169C13.2257 12.0803 13.013 12.314 12.875 12.5917L10 18.3333C9.60701 18.3285 9.22021 18.2349 8.86849 18.0595C8.51677 17.8842 8.20922 17.6316 7.96882 17.3207C7.72843 17.0098 7.5614 16.6485 7.48021 16.264C7.39903 15.8795 7.40579 15.4816 7.5 15.1Z" stroke="#7B61FF" stroke-width="1.66667" stroke-linecap="round" stroke-linejoin="round"/>
</g>
<defs>
<clipPath id="clip0_54_308">
<rect width="20" height="20" fill="white" transform="translate(20 20) rotate(-180)"/>
</clipPath>
</defs>
</svg>
