<svg width="20" height="20" viewBox="0 0 20 20" fill="none" xmlns="http://www.w3.org/2000/svg">
<g opacity="0.5" clip-path="url(#clip0_54_305)">
<path d="M5.83334 8.33334V18.3333" stroke="#7B61FF" stroke-width="1.66667" stroke-linecap="round" stroke-linejoin="round"/>
<path d="M12.5 4.89999L11.6667 8.33332H16.525C16.7837 8.33332 17.0389 8.39356 17.2704 8.50928C17.5018 8.62499 17.7031 8.793 17.8583 8.99999C18.0136 9.20698 18.1185 9.44728 18.1648 9.70185C18.2111 9.95642 18.1974 10.2183 18.125 10.4667L16.1833 17.1333C16.0824 17.4795 15.8718 17.7836 15.5833 18C15.2948 18.2164 14.9439 18.3333 14.5833 18.3333H3.33333C2.8913 18.3333 2.46738 18.1577 2.15482 17.8452C1.84226 17.5326 1.66666 17.1087 1.66666 16.6667V9.99999C1.66666 9.55796 1.84226 9.13404 2.15482 8.82148C2.46738 8.50892 2.8913 8.33332 3.33333 8.33332H5.63333C5.9434 8.33316 6.24728 8.2465 6.51079 8.08309C6.77431 7.91968 6.98702 7.686 7.125 7.40832L10 1.66666C10.393 1.67152 10.7798 1.76513 11.1315 1.94049C11.4832 2.11584 11.7908 2.36841 12.0312 2.67933C12.2716 2.99024 12.4386 3.35146 12.5198 3.73599C12.601 4.12053 12.5942 4.51844 12.5 4.89999Z" stroke="#7B61FF" stroke-width="1.66667" stroke-linecap="round" stroke-linejoin="round"/>
</g>
<defs>
<clipPath id="clip0_54_305">
<rect width="20" height="20" fill="white"/>
</clipPath>
</defs>
</svg>
