<?xml version="1.0" standalone="no"?>
<!DOCTYPE svg PUBLIC "-//W3C//DTD SVG 20010904//EN"
 "http://www.w3.org/TR/2001/REC-SVG-20010904/DTD/svg10.dtd">
<svg version="1.0" xmlns="http://www.w3.org/2000/svg"
 width="124.000000pt" height="124.000000pt" viewBox="0 0 124.000000 124.000000"
 preserveAspectRatio="xMidYMid meet">
<metadata>
Created by potrace 1.14, written by Peter Selinger 2001-2017
</metadata>
<g transform="translate(0.000000,124.000000) scale(0.100000,-0.100000)"
fill="#000000" stroke="none">
<path d="M464 1220 c-206 -56 -372 -216 -440 -427 -24 -74 -26 -244 -5 -325
42 -154 141 -290 274 -372 340 -210 782 -52 914 326 34 98 40 252 13 351 -54
202 -206 366 -402 434 -100 34 -253 40 -354 13z m318 -110 c365 -122 478 -584
209 -858 -196 -199 -522 -204 -721 -10 -113 110 -163 225 -163 378 0 179 78
328 223 427 128 87 304 112 452 63z"/>
<path d="M570 1028 c-125 -17 -251 -100 -313 -208 -49 -85 -65 -212 -41 -317
13 -56 57 -134 103 -180 43 -44 153 -113 179 -113 11 0 15 3 80 65 l42 39 55
-54 54 -53 40 11 c56 17 153 92 191 148 81 117 101 282 49 408 -45 110 -169
214 -289 244 -73 18 -82 18 -150 10z m170 -150 c206 -95 234 -377 50 -508
l-28 -20 -26 25 -27 25 45 44 c54 51 76 98 77 164 3 129 -113 237 -234 218
-114 -19 -189 -105 -189 -217 1 -64 21 -105 75 -160 l47 -46 -23 -21 c-13 -12
-29 -22 -36 -22 -6 0 -34 22 -60 48 -113 113 -111 293 3 408 93 92 212 115
326 62z m-69 -191 c50 -38 47 -104 -9 -160 l-40 -40 -41 40 c-56 53 -64 97
-26 141 21 25 34 32 63 32 21 0 44 -6 53 -13z"/>
</g>
</svg>
